<svg width="67" height="68" viewBox="0 0 67 68" fill="none" xmlns="http://www.w3.org/2000/svg">
<path d="M8.22662 33.9985L1.85645 13.1339L6.49645 13.1343L9.15348 23.0866C9.49494 24.2599 9.78306 25.3906 10.0178 26.4787C10.2739 27.5454 10.5621 28.6654 10.8822 29.8387L11.0102 29.8388C11.3514 28.6655 11.6499 27.5455 11.9058 26.4788C12.1617 25.3909 12.4389 24.2602 12.7375 23.0869L15.3284 13.1352L19.8404 13.1356L13.4746 33.999L8.22662 33.9985ZM22.1724 33.9998L22.1702 13.1358L26.5542 13.1363L26.5551 21.9683L26.6831 21.9683L33.2742 13.1369L38.1382 13.1374L31.7711 21.3928L39.2604 34.0015L34.4284 34.001L29.1794 24.8485L26.5558 28.2403L26.5564 34.0003L22.1724 33.9998ZM41.6724 34.0017L41.6702 13.1377L46.1822 13.1382L51.9433 23.9547L54.0558 28.4989L54.1838 28.4989C54.077 27.3896 53.9489 26.1736 53.7994 24.8509C53.6713 23.5282 53.6071 22.2589 53.607 21.0429L53.6062 13.1389L57.7982 13.1393L57.8004 34.0033L53.2884 34.0029L47.5272 23.1543L45.4148 18.6421L45.2868 18.6421C45.3936 19.7514 45.511 20.9568 45.6391 22.2581C45.7886 23.5595 45.8634 24.8181 45.8635 26.0341L45.8644 34.0021L41.6724 34.0017Z" fill="white"/>
<path d="M3.53849 59.2881L3.53279 38.4241L10.5088 38.4257C12.0448 38.426 13.4315 38.629 14.669 39.0346C15.9064 39.4403 16.8879 40.1338 17.6135 41.1153C18.3605 42.0755 18.7341 43.3876 18.7346 45.0516C18.735 46.6516 18.3727 47.9635 17.6477 48.9873C16.9226 50.0111 15.9415 50.7789 14.7043 51.2906C13.4884 51.781 12.1338 52.0261 10.6405 52.0257L7.92051 52.0251L7.92249 59.2891L3.53849 59.2881ZM7.91954 48.5051L10.3515 48.5057C11.7382 48.506 12.7621 48.2182 13.4233 47.6424C14.0845 47.0452 14.4149 46.1812 14.4146 45.0506C14.4143 43.8772 14.0514 43.0665 13.3259 42.6183C12.6218 42.1488 11.5871 41.9139 10.2217 41.9136L7.91774 41.9131L7.91954 48.5051ZM22.476 59.2924L22.4703 38.4284L27.3023 38.4295L30.7929 47.9983C31.0064 48.617 31.2092 49.2677 31.4014 49.9504C31.615 50.6118 31.8285 51.2732 32.042 51.9346L32.17 51.9346C32.3831 51.2733 32.5856 50.612 32.7774 49.9507C32.9906 49.2681 33.2037 48.6175 33.4169 47.9989L36.7743 38.4317L41.6383 38.4328L41.644 59.2968L37.612 59.2958L37.6097 51.0078C37.6095 50.3465 37.6413 49.6105 37.7051 48.7999C37.7902 47.9679 37.8753 47.1359 37.9604 46.3039C38.0455 45.4719 38.12 44.7253 38.1838 44.064L38.0558 44.0639L36.3612 48.9916L33.2595 57.4389L30.7635 57.4383L27.6572 48.9896L25.9918 44.0612L25.8638 44.0612C25.928 44.7225 26.0029 45.4692 26.0884 46.3012C26.174 47.1333 26.2489 47.9653 26.3131 48.7973C26.3773 49.608 26.4095 50.344 26.4097 51.0053L26.412 59.2933L22.476 59.2924ZM55.3028 59.6839C53.5322 59.6835 51.9214 59.2778 50.4705 58.4668C49.0196 57.6558 47.8566 56.4502 46.9815 54.85C46.1064 53.2498 45.6685 51.287 45.6679 48.9617C45.6674 47.2337 45.923 45.6977 46.4347 44.3539C46.9463 43.01 47.65 41.8688 48.5457 40.9303C49.4628 39.9705 50.5079 39.2561 51.6811 38.787C52.8757 38.2966 54.1236 38.0516 55.4249 38.0519C56.7689 38.0522 57.9637 38.3191 59.0091 38.8527C60.076 39.3863 60.9508 40.0158 61.6337 40.7413L59.2984 43.5568C58.765 43.0447 58.1995 42.6285 57.6021 42.3084C57.0047 41.9883 56.3113 41.8281 55.522 41.8279C54.5193 41.8277 53.6127 42.1155 52.8022 42.6913C51.9917 43.2458 51.3519 44.0456 50.8829 45.0909C50.4138 46.1361 50.1795 47.384 50.1799 48.8347C50.1803 50.3067 50.394 51.5761 50.8209 52.6428C51.2479 53.6883 51.8561 54.4884 52.6456 55.0433C53.4564 55.5981 54.3951 55.8757 55.4618 55.8759C56.3365 55.8761 57.1151 55.6843 57.7976 55.3004C58.5015 54.9166 59.1201 54.4367 59.6533 53.8609L61.99 56.6134C61.1369 57.6159 60.1452 58.3836 59.0146 58.9167C57.8841 59.4285 56.6468 59.6842 55.3028 59.6839Z" fill="white"/>
</svg>
